<svg xmlns="http://www.w3.org/2000/svg" viewBox="0 0 64 64">
  <!-- Dark background -->
  <circle cx="32" cy="32" r="32" fill="#1a1a1a"/>
  <!-- Sunset glow -->
  <circle cx="32" cy="38" r="16" fill="#D97706" opacity="0.2"/>
  <circle cx="32" cy="42" r="10" fill="#D97706" opacity="0.15"/>
  <!-- Ground -->
  <rect x="6" y="46" width="52" height="3" rx="1.5" fill="#92400E" opacity="0.6"/>
  <!-- Acacia trunk -->
  <rect x="30" y="34" width="4" height="13" rx="2" fill="#78350F"/>
  <!-- Acacia canopy -->
  <ellipse cx="32" cy="30" rx="14" ry="5.5" fill="#365314"/>
  <ellipse cx="20" cy="33" rx="6.5" ry="3.5" fill="#365314"/>
  <ellipse cx="44" cy="33" rx="6.5" ry="3.5" fill="#365314"/>
  <ellipse cx="32" cy="28" rx="10" ry="4" fill="#4D7C0F"/>
  <!-- Lion body -->
  <ellipse cx="16" cy="45" rx="7" ry="4" fill="#D97706"/>
  <!-- Lion head -->
  <circle cx="10" cy="42" r="4" fill="#D97706"/>
  <!-- Mane -->
  <circle cx="10" cy="42" r="5.5" fill="#92400E" opacity="0.7"/>
  <circle cx="10" cy="42" r="4" fill="#D97706"/>
  <!-- Ear -->
  <polygon points="7.5,38.5 9.5,36 11.5,38.5" fill="#D97706"/>
  <!-- Eye -->
  <circle cx="9" cy="41.5" r="0.8" fill="#1a1a1a"/>
  <!-- Tail -->
  <path d="M23 44 Q30 38 28 35" stroke="#D97706" stroke-width="1.8" fill="none" stroke-linecap="round"/>
  <circle cx="28" cy="34.5" r="2" fill="#92400E"/>
  <!-- Stars -->
  <circle cx="46" cy="14" r="1.2" fill="#FCD34D"/>
  <circle cx="52" cy="20" r="0.9" fill="#FCD34D"/>
  <circle cx="40" cy="10" r="0.7" fill="#FCD34D"/>
  <circle cx="55" cy="12" r="0.7" fill="#FCD34D"/>
  <circle cx="50" cy="8" r="0.5" fill="#FCD34D"/>
</svg>
